# xmcd
#
# Track frame offsets:
#	150
#	19915
#	38188
#	59227
#	80313
#	105223
#	129178
#	148757
#	164980
#	187597
#	205585
#	230310
#	248923
#
# Disc length: 3473 seconds
#
# Revision: 1
# Processed by: cddbd v1.5.1PL0 Copyright (c) Steve Scherf et al.
# Submitted via: CDex 1.50Beta5
#
DISCID=a90d8f0d
DTITLE=石井竜也 - THEATER
DYEAR=1900
DGENRE=Pop
TTITLE0=OPEN THE DOOR
TTITLE1=MY DREAM
TTITLE2=DOROBOW
TTITLE3=コ・ウ・カ・イ
TTITLE4=静かなる生活
TTITLE5=逃亡者
TTITLE6=やっぱり君を愛してる
TTITLE7=激痛
TTITLE8=SEXY DOLL
TTITLE9=オトメノキモチ
TTITLE10=ありふれた話
TTITLE11=DANCE
TTITLE12=純愛
EXTD=
EXTT0=
EXTT1=
EXTT2=
EXTT3=
EXTT4=
EXTT5=
EXTT6=
EXTT7=
EXTT8=
EXTT9=
EXTT10=
EXTT11=
EXTT12=
PLAYORDER=
